<?xml version="1.0" encoding="iso-8859-1"?>
<!-- Generator: Adobe Illustrator 19.0.0, SVG Export Plug-In . SVG Version: 6.00 Build 0)  -->
<svg version="1.1" id="Layer_1" xmlns="http://www.w3.org/2000/svg" xmlns:xlink="http://www.w3.org/1999/xlink" x="0px" y="0px"
	 viewBox="0 0 512 512" style="enable-background:new 0 0 512 512;" xml:space="preserve">
<g>
	<g>
		<path d="M306.036,422.4l-44.218-22.109c-3.491-2.327-6.982-5.818-6.982-10.473v-22.109c13.964-4.655,23.273-17.455,23.273-32.582
			c0-19.782-15.127-34.909-34.909-34.909H128c-19.782,0-34.909,15.127-34.909,34.909c0,19.782,15.127,34.909,34.909,34.909h69.818
			c6.982,0,11.636-4.655,11.636-11.636s-4.655-11.636-11.636-11.636H128c-6.982,0-11.636-4.655-11.636-11.636
			s4.655-11.636,11.636-11.636h116.364c6.982,0,11.636,4.655,11.636,11.636s-4.655,11.636-11.636,11.636
			s-11.636,4.655-11.636,11.636v32.582c0,12.8,6.982,25.6,19.782,31.418l44.218,22.109c3.491,2.327,6.982,5.818,6.982,10.473v23.273
			c0,6.982-4.655,11.636-11.636,11.636H81.454c-6.982,0-11.636-4.655-11.636-11.636v-23.273c0-4.655,2.327-8.146,6.982-10.473
			l44.218-22.109c11.636-5.818,19.782-17.455,19.782-31.418c0-6.982-4.655-11.636-11.636-11.636s-11.636,4.655-11.636,11.636
			c0,4.655-2.327,8.145-6.982,10.473l-44.218,22.109c-12.8,4.655-19.782,17.455-19.782,30.255v23.273
			c0,19.782,15.127,34.909,34.909,34.909h209.455c19.782,0,34.909-15.127,34.909-34.909v-23.273
			C325.818,441.018,318.836,428.218,306.036,422.4z"/>
	</g>
</g>
<g>
	<g>
		<path d="M438.691,3.491C436.364,1.164,432.873,0,429.382,0s-6.982,2.327-8.145,4.655L211.782,272.291
			c-3.491,4.655-3.491,12.8,2.327,16.291c2.327,1.164,4.655,2.327,6.982,2.327c3.491,0,6.982-1.164,9.309-4.655l200.145-256
			c8.145,12.8,11.636,30.255,11.636,51.2c0,33.745-17.455,53.527-25.6,62.836L371.2,159.418c-3.491,1.164-6.982,4.655-8.145,9.309
			c-1.164,3.491,1.164,8.145,3.491,10.473l18.618,16.291c-24.436,22.109-52.364,39.564-97.745,48.873
			c-5.818,1.164-10.473,8.145-9.309,13.964c1.164,5.818,8.146,10.473,13.964,9.309c60.509-12.8,91.927-38.4,117.527-64
			c2.327-2.327,3.491-6.982,3.491-10.473c0-2.327-2.327-4.655-3.491-6.982l-12.8-11.636l29.091-10.473
			c1.164,0,3.491-2.327,4.655-3.491c23.273-20.945,34.909-48.873,34.909-79.127C465.455,47.709,456.145,20.945,438.691,3.491z"/>
	</g>
</g>
<g>
</g>
<g>
</g>
<g>
</g>
<g>
</g>
<g>
</g>
<g>
</g>
<g>
</g>
<g>
</g>
<g>
</g>
<g>
</g>
<g>
</g>
<g>
</g>
<g>
</g>
<g>
</g>
<g>
</g>
</svg>
